<svg width="26" height="26" viewBox="0 0 26 26" fill="none" xmlns="http://www.w3.org/2000/svg">
<path d="M22.0052 22.1563H18.1803V16.1233C18.1803 14.6846 18.1513 12.8332 16.1872 12.8332C14.193 12.8332 13.8884 14.3986 13.8884 16.0171V22.1563H10.0636V9.75H13.7378V11.4411H13.7873C14.3006 10.4661 15.549 9.43692 17.4141 9.43692C21.2895 9.43692 22.0063 12.0044 22.0063 15.3465V22.1563H22.0052ZM5.74371 8.05242C4.51253 8.05242 3.5235 7.04925 3.5235 5.81533C3.5235 4.5825 4.51361 3.58042 5.74371 3.58042C6.97059 3.58042 7.965 4.5825 7.965 5.81533C7.965 7.04925 6.96951 8.05242 5.74371 8.05242ZM7.66151 22.1563H3.82591V9.75H7.66151V22.1563ZM23.9187 0H1.90596C0.852355 0 0 0.8385 0 1.87308V24.1269C0 25.1626 0.852355 26 1.90596 26H23.9155C24.968 26 25.8289 25.1626 25.8289 24.1269V1.87308C25.8289 0.8385 24.968 0 23.9155 0L23.9187 0Z" fill="url(#paint0_linear_17_169)"/>
<defs>
<linearGradient id="paint0_linear_17_169" x1="12.9145" y1="0" x2="12.9145" y2="26" gradientUnits="userSpaceOnUse">
<stop stop-color="#00FF47" stop-opacity="0.76"/>
<stop offset="1" stop-color="#0066FF" stop-opacity="0.68"/>
</linearGradient>
</defs>
</svg>
