<svg width="27" height="26" viewBox="0 0 27 26" fill="none" xmlns="http://www.w3.org/2000/svg">
<path d="M13.3618 0C6.22658 0 0.447357 5.96854 0.447357 13.3301C0.447357 19.2208 4.14735 24.2163 9.27763 25.977C9.92335 26.1025 10.1601 25.6904 10.1601 25.336C10.1601 25.0194 10.1494 24.1807 10.144 23.0699C6.5516 23.8742 5.79395 21.2815 5.79395 21.2815C5.20634 19.7429 4.35721 19.3319 4.35721 19.3319C3.18738 18.5055 4.44762 18.5221 4.44762 18.5221C5.74444 18.6154 6.42568 19.8951 6.42568 19.8951C7.57722 21.9335 9.44875 21.3448 10.187 21.0037C10.3033 20.1417 10.6358 19.5541 11.0049 19.2208C8.13685 18.8876 5.1224 17.7412 5.1224 12.6336C5.1224 11.1784 5.62283 9.98978 6.45151 9.05667C6.30622 8.72009 5.87036 7.36486 6.56451 5.52865C6.56451 5.52865 7.6461 5.17096 10.116 6.89498C11.1492 6.59838 12.2469 6.45175 13.3446 6.44509C14.4423 6.45175 15.5401 6.59838 16.5732 6.89498C19.027 5.17096 20.1086 5.52865 20.1086 5.52865C20.8027 7.36486 20.3669 8.72009 20.2377 9.05667C21.061 9.98978 21.5614 11.1784 21.5614 12.6336C21.5614 17.7545 18.5427 18.882 15.6692 19.2097C16.1212 19.6096 16.5409 20.4272 16.5409 21.6758C16.5409 23.4598 16.5248 24.8928 16.5248 25.326C16.5248 25.6759 16.7508 26.0925 17.4127 25.9592C22.5795 24.2107 26.2763 19.212 26.2763 13.3301C26.2763 5.96854 20.4938 0 13.3618 0" fill="url(#paint0_linear_17_171)"/>
<defs>
<linearGradient id="paint0_linear_17_171" x1="13.3618" y1="0" x2="13.3618" y2="26" gradientUnits="userSpaceOnUse">
<stop stop-color="#16DB65" stop-opacity="0.76"/>
<stop offset="1" stop-color="#0076FF" stop-opacity="0.67"/>
</linearGradient>
</defs>
</svg>
