<svg width="27" height="26" viewBox="0 0 27 26" fill="none" xmlns="http://www.w3.org/2000/svg">
<path d="M13.6382 0C10.1297 0 9.69172 0.01625 8.31418 0.078C6.93878 0.143 6.00248 0.36075 5.17919 0.6825C4.33006 1.014 3.609 1.45925 2.89117 2.18183C2.17334 2.90442 1.72995 3.62917 1.4017 4.485C1.08207 5.31375 0.864677 6.25625 0.801181 7.64075C0.736608 9.02742 0.723694 9.46833 0.723694 13C0.723694 16.5317 0.739837 16.9726 0.801181 18.3593C0.865753 19.7427 1.08207 20.6863 1.4017 21.515C1.73102 22.3687 2.17334 23.0956 2.89117 23.8182C3.609 24.5397 4.32898 24.9871 5.17919 25.3175C6.00356 25.6382 6.93986 25.8581 8.31418 25.922C9.69172 25.987 10.1297 26 13.6382 26C17.1466 26 17.5846 25.9838 18.9622 25.922C20.3365 25.857 21.2738 25.6382 22.0971 25.3175C22.9452 24.986 23.6673 24.5397 24.3852 23.8182C25.1019 23.0956 25.5464 22.3719 25.8746 21.515C26.1932 20.6863 26.4117 19.7427 26.4752 18.3593C26.5397 16.9726 26.5526 16.5317 26.5526 13C26.5526 9.46833 26.5365 9.02742 26.4752 7.64075C26.4106 6.25733 26.1932 5.31267 25.8746 4.485C25.5453 3.63025 25.1019 2.90442 24.3852 2.18183C23.6673 1.45925 22.9484 1.01292 22.0971 0.6825C21.2738 0.36075 20.3365 0.141917 18.9622 0.078C17.5846 0.013 17.1466 0 13.6382 0V0ZM13.6382 2.34C17.0853 2.34 17.4964 2.35733 18.8578 2.41692C20.1169 2.4765 20.8003 2.68667 21.2545 2.8665C21.8593 3.10158 22.2876 3.38325 22.7418 3.83717C23.1927 4.29217 23.4725 4.72442 23.7061 5.33325C23.8826 5.79042 24.0935 6.47833 24.1505 7.74583C24.2119 9.11733 24.2259 9.529 24.2259 13C24.2259 16.471 24.2097 16.8838 24.1462 18.2542C24.0806 19.5217 23.8707 20.2096 23.6932 20.6668C23.4521 21.2756 23.1777 21.7068 22.7257 22.1639C22.2747 22.6178 21.8389 22.8995 21.2405 23.1346C20.7885 23.3123 20.0943 23.5246 18.8352 23.582C17.4641 23.6438 17.0605 23.6578 13.6059 23.6578C10.1502 23.6578 9.74661 23.6416 8.3766 23.5777C7.11636 23.5116 6.42221 23.3003 5.9702 23.1216C5.35784 22.8789 4.93704 22.6027 4.48611 22.1477C4.03303 21.6938 3.74353 21.255 3.51752 20.6527C3.33995 20.1977 3.13117 19.4989 3.06552 18.2314C3.01709 16.8664 2.99987 16.445 2.99987 12.9838C2.99987 9.52142 3.01709 9.09892 3.06552 7.71767C3.13117 6.45017 3.33995 5.7525 3.51752 5.2975C3.74353 4.68 4.03303 4.2575 4.48611 3.80142C4.93704 3.3475 5.35784 3.055 5.9702 2.82858C6.42221 2.64875 7.10129 2.4375 8.36045 2.3725C9.73262 2.32375 10.1362 2.3075 13.5897 2.3075L13.6382 2.34V2.34ZM13.6382 6.3245C9.97369 6.3245 7.00658 9.3145 7.00658 13C7.00658 16.6888 9.97691 19.6755 13.6382 19.6755C17.3026 19.6755 20.2697 16.6855 20.2697 13C20.2697 9.31125 17.2994 6.3245 13.6382 6.3245ZM13.6382 17.3333C11.2598 17.3333 9.33334 15.3942 9.33334 13C9.33334 10.6058 11.2598 8.66667 13.6382 8.66667C16.0166 8.66667 17.943 10.6058 17.943 13C17.943 15.3942 16.0166 17.3333 13.6382 17.3333ZM22.0821 6.06125C22.0821 6.9225 21.3869 7.62125 20.5323 7.62125C19.6768 7.62125 18.9826 6.92142 18.9826 6.06125C18.9826 5.20108 19.6778 4.50233 20.5323 4.50233C21.3858 4.50125 22.0821 5.20108 22.0821 6.06125Z" fill="url(#paint0_linear_17_167)"/>
<defs>
<linearGradient id="paint0_linear_17_167" x1="13.6382" y1="0" x2="13.6382" y2="26" gradientUnits="userSpaceOnUse">
<stop stop-color="#00FE66" stop-opacity="0.78"/>
<stop offset="1" stop-color="#0076FF" stop-opacity="0.66"/>
</linearGradient>
</defs>
</svg>
