<svg width="36" height="36" viewBox="0 0 36 36" fill="none" xmlns="http://www.w3.org/2000/svg">
<path d="M19.5 12.75H13.5C10.6005 12.75 8.25 10.3995 8.25 7.5C8.25 4.6005 10.6005 2.25 13.5 2.25H19.5V12.75Z" fill="#E64A19"/>
<path d="M18.75 23.25H13.5C10.6005 23.25 8.25 20.8995 8.25 18C8.25 15.1005 10.6005 12.75 13.5 12.75H18.75V23.25Z" fill="#7C4DFF"/>
<path d="M13.5 33.75C10.6005 33.75 8.25 31.3995 8.25 28.5C8.25 25.6005 10.6005 23.25 13.5 23.25H18.75V28.5C18.75 31.3995 16.3995 33.75 13.5 33.75Z" fill="#66BB6A"/>
<path d="M24 12.75H18.75V2.25H24C26.8995 2.25 29.25 4.6005 29.25 7.5C29.25 10.3995 26.8995 12.75 24 12.75Z" fill="#FF7043"/>
<path d="M24 23.25C26.8995 23.25 29.25 20.8995 29.25 18C29.25 15.1005 26.8995 12.75 24 12.75C21.1005 12.75 18.75 15.1005 18.75 18C18.75 20.8995 21.1005 23.25 24 23.25Z" fill="#29B6F6"/>
</svg>
