<svg width="36" height="36" viewBox="0 0 36 36" fill="none" xmlns="http://www.w3.org/2000/svg">
<path d="M35.3141 16.3932L19.5961 0.680789C18.694 -0.22693 17.2239 -0.22693 16.315 0.680789L13.0576 3.94385L17.1991 8.07977C18.1653 7.75807 19.2677 7.97404 20.0292 8.74228C20.803 9.51614 21.019 10.6286 20.6917 11.5892L24.6757 15.5789C25.6419 15.2448 26.7555 15.4619 27.5226 16.2346C28.6069 17.3122 28.6069 19.0579 27.5226 20.1366C26.445 21.2141 24.705 21.2141 23.6263 20.1366C22.8175 19.3278 22.6128 18.1333 23.0166 17.1435L19.2845 13.4293V23.2185C19.5477 23.3479 19.7997 23.5234 20.0168 23.7404C21.0887 24.8248 21.0887 26.5637 20.0168 27.6424C18.9392 28.72 17.1868 28.72 16.1036 27.6424C15.026 26.5648 15.026 24.8248 16.1036 23.7404C16.3792 23.4705 16.684 23.2714 17.0113 23.1376V13.255C16.6896 13.1144 16.378 12.9209 16.1092 12.6521C15.2948 11.8377 15.0957 10.6432 15.5176 9.641L11.4514 5.55233L0.672353 16.3257C-0.224118 17.2278 -0.224118 18.6979 0.672353 19.6068L16.3904 35.3192C17.2981 36.2269 18.7626 36.2269 19.6715 35.3192L35.313 19.6776C36.2207 18.7756 36.2207 17.3054 35.313 16.3966L35.3141 16.3932Z" fill="url(#paint0_linear_14_26)"/>
<defs>
<linearGradient id="paint0_linear_14_26" x1="17.9969" y1="0" x2="17.9969" y2="36" gradientUnits="userSpaceOnUse">
<stop stop-color="#FF0000" stop-opacity="0.78"/>
<stop offset="1" stop-color="#B03500" stop-opacity="0.67"/>
</linearGradient>
</defs>
</svg>
