<svg width="33" height="36" viewBox="0 0 33 36" fill="none" xmlns="http://www.w3.org/2000/svg">
<path d="M31.7402 17.7289C31.7402 15.6084 30.3048 13.7511 28.2485 13.2123L32.7302 0H10.5241L15.0193 13.2595C13.0259 13.84 11.6546 15.6613 11.649 17.7356C11.649 19.3004 12.4286 20.6886 13.6188 21.5435C13.1452 22.2173 12.5985 22.8394 11.9955 23.4064C10.8886 24.4627 9.58703 25.2996 8.16962 25.8801C6.91533 25.0353 6.37761 23.5414 6.86358 22.2128C11.9606 20.6244 10.8357 13.1133 5.50467 13.0908C2.92633 13.0953 0.83509 15.182 0.83509 17.7604C0.83509 19.0327 1.34918 20.1981 2.18838 21.035C2.11188 21.1756 2.04101 21.3286 1.96452 21.4805C1.26819 22.9215 0.476237 24.5448 0.172507 26.3672C-0.430455 30.0176 0.559482 32.9469 2.94995 34.605C4.238 35.514 5.78477 36.0056 7.36755 36C10.1034 36 12.8876 34.623 15.5761 33.2866C17.4975 32.3428 19.4774 31.3529 21.4224 30.8737C22.1435 30.6982 22.8938 30.5935 23.6846 30.4743C25.2899 30.2459 26.948 30.0063 28.4363 29.139C30.1586 28.1547 31.36 26.4561 31.711 24.5043C31.9686 23.016 31.711 21.5165 31.0439 20.1981C31.495 19.477 31.7414 18.6401 31.7414 17.7311L31.7402 17.7289ZM29.7075 17.7289C29.7075 19.1767 28.5286 20.3533 27.083 20.3533C24.5981 20.3477 23.5091 17.2137 25.4586 15.6658L25.4643 15.6556C25.5531 15.5915 25.6476 15.5263 25.7343 15.4666C25.7343 15.4666 25.7523 15.4666 25.7523 15.4565C25.7927 15.4329 25.8332 15.4036 25.8749 15.38C25.8872 15.38 25.8929 15.3744 25.903 15.3744C25.9446 15.3508 25.9975 15.3339 26.0504 15.3103C26.1032 15.2866 26.155 15.2698 26.1977 15.2462C26.2078 15.2462 26.2146 15.2405 26.2258 15.2405C26.2675 15.2282 26.3147 15.2057 26.3552 15.2C26.3608 15.2 26.3856 15.1877 26.3968 15.1877C26.4497 15.1753 26.4902 15.164 26.542 15.1573H26.5476L26.7062 15.1224C26.7163 15.1224 26.7343 15.1224 26.7467 15.11C26.7872 15.11 26.8288 15.0977 26.8761 15.0977H26.9222C26.975 15.0977 27.0268 15.092 27.092 15.092H27.227C27.2687 15.092 27.3035 15.092 27.344 15.0977H27.362C27.4441 15.11 27.5319 15.1213 27.614 15.146C28.8323 15.4036 29.7064 16.4813 29.7064 17.7289H29.7075ZM13.4309 2.08674H29.8245L26.0627 13.183C25.9041 13.2134 25.7522 13.2652 25.5936 13.318L21.6339 5.24442L17.6606 13.2663C17.5088 13.2179 17.3378 13.1842 17.169 13.1549L13.4309 2.08674ZM20.8836 16.8211C20.6901 15.8592 20.1985 14.9807 19.4763 14.3192L21.6328 9.96686L23.8117 14.4126C23.1604 15.0572 22.6924 15.884 22.5057 16.8211H20.8836ZM15.6628 15.1742C15.7089 15.1618 15.7573 15.1517 15.8101 15.146H15.8383C15.8799 15.1337 15.9204 15.1337 15.9609 15.1224H16.0025C16.043 15.1224 16.079 15.11 16.1195 15.11H16.5233C16.565 15.11 16.5998 15.1224 16.6302 15.1224C16.6527 15.1224 16.6583 15.1224 16.6831 15.1348C16.7236 15.1472 16.754 15.1472 16.7944 15.1528C16.8068 15.1528 16.8181 15.1528 16.8406 15.1629L16.9812 15.1933H16.9936C17.0341 15.2057 17.0824 15.2169 17.1229 15.2394C17.1286 15.2394 17.1409 15.245 17.1634 15.245C17.1938 15.2574 17.2343 15.2687 17.2703 15.2855C17.2748 15.2855 17.2872 15.2979 17.2984 15.2979C17.3389 15.3215 17.3805 15.3339 17.421 15.3508H17.4334C17.4795 15.3688 17.5268 15.3924 17.5684 15.4273H17.5808C17.6213 15.4453 17.6618 15.4734 17.7034 15.4981C17.7135 15.4981 17.7135 15.5105 17.7259 15.5105C17.7675 15.5285 17.7968 15.5634 17.8373 15.5814L17.8496 15.5938C17.9722 15.6871 18.0892 15.7917 18.2085 15.8986L18.213 15.9042C18.6821 16.3958 18.9408 17.046 18.9341 17.7187C18.8227 21.1059 13.7954 21.1059 13.684 17.7187C13.6784 16.5184 14.4985 15.4689 15.6639 15.1764L15.6628 15.1742ZM5.40342 15.0977C6.85121 15.0977 8.02788 16.2811 8.02788 17.7289C8.02788 19.1767 6.85008 20.3533 5.40342 20.3533C3.95789 20.3533 2.77897 19.1755 2.77897 17.7289C2.77897 16.2822 3.95789 15.0977 5.40342 15.0977ZM29.6479 24.1398C29.4083 25.4864 28.5769 26.6585 27.3879 27.3391C26.2506 27.995 24.8501 28.2064 23.3865 28.4101C22.5597 28.5169 21.734 28.662 20.9252 28.8499C18.7574 29.3843 16.6718 30.4203 14.6492 31.4226C12.0664 32.7062 9.62865 33.9121 7.36755 33.9121C6.20775 33.9177 5.07719 33.5611 4.13338 32.8817C1.8419 31.2989 1.95439 28.3291 2.22888 26.7002C2.47523 25.1759 3.17269 23.7529 3.83977 22.3883C3.88814 22.3062 3.91627 22.2297 3.95789 22.1487C4.18625 22.2297 4.42586 22.2938 4.67785 22.3366C4.2785 24.5448 5.40342 26.8307 7.59478 27.9556L7.98738 28.1592L8.41486 28.0073C10.2372 27.356 11.9303 26.3076 13.4185 24.9025C14.2454 24.1342 14.9709 23.268 15.5863 22.3242C15.8281 22.3647 16.0677 22.3771 16.3074 22.3771C18.4278 22.3714 20.2795 20.9417 20.8194 18.8853H22.571C23.103 20.9417 24.9603 22.3771 27.083 22.3771C27.9504 22.3771 28.7524 22.1375 29.4375 21.7325C29.7075 22.5121 29.7941 23.3265 29.6479 24.141V24.1398Z" fill="url(#paint0_linear_14_35)"/>
<defs>
<linearGradient id="paint0_linear_14_35" x1="16.3651" y1="0" x2="16.3651" y2="36" gradientUnits="userSpaceOnUse">
<stop stop-color="#DB16A4" stop-opacity="0.78"/>
<stop offset="1" stop-color="#FF5C00" stop-opacity="0.67"/>
</linearGradient>
</defs>
</svg>
