<svg width="37" height="36" viewBox="0 0 37 36" fill="none" xmlns="http://www.w3.org/2000/svg">
<path d="M26.7182 33.7522C26.5843 33.8231 26.5955 33.8456 26.7238 33.7803C26.7654 33.7635 26.8003 33.7398 26.8307 33.7117C26.8307 33.6881 26.8307 33.6881 26.7182 33.7522ZM26.9882 33.6059C26.924 33.6588 26.924 33.6588 27.0005 33.624C27.041 33.6003 27.077 33.5778 27.077 33.5711C27.077 33.5407 27.059 33.5474 26.9882 33.6059ZM27.1637 33.5002C27.0995 33.5531 27.0995 33.5531 27.1761 33.5182C27.2177 33.4946 27.2526 33.4698 27.2526 33.4642C27.2526 33.4361 27.2346 33.4417 27.1637 33.5002ZM27.3414 33.3956C27.2773 33.4484 27.2773 33.4484 27.3516 33.4124C27.3932 33.3899 27.4281 33.3663 27.4281 33.3596C27.4281 33.3314 27.4101 33.3371 27.3414 33.3956ZM27.5811 33.2369C27.4584 33.3191 27.4157 33.3719 27.5282 33.3134C27.6036 33.2673 27.7318 33.1661 27.7093 33.1661C27.6609 33.1841 27.6204 33.2144 27.5799 33.2369H27.5811ZM16.8225 0.00826895C16.7403 0.0138941 16.494 0.0363945 16.278 0.0543949C11.1614 0.517904 6.37438 3.27196 3.34019 7.51442C1.66278 9.83984 0.573762 12.541 0.163128 15.3772C0.0180004 16.3672 0 16.6597 0 18.0019C0 19.3429 0.0180004 19.6309 0.163128 20.6209C1.14302 27.3834 5.95362 33.0603 12.4743 35.1641C13.6477 35.5387 14.8773 35.7975 16.278 35.9561C16.8225 36.0146 19.1771 36.0146 19.7216 35.9561C22.1427 35.6861 24.1869 35.0887 26.2097 34.0571C26.5202 33.8996 26.5787 33.858 26.537 33.8231C25.547 32.5169 24.575 31.2097 23.6019 29.8911L20.7252 26.0064L17.1217 20.6682C15.9202 18.8817 14.7142 17.0996 13.489 15.3311C13.4766 15.3311 13.4609 17.7038 13.4541 20.5973C13.4418 25.6655 13.4418 25.8714 13.3776 25.9884C13.3135 26.129 13.2078 26.246 13.0671 26.3113C12.9558 26.3642 12.8556 26.3754 12.3235 26.3754H11.7149L11.5562 26.2764C11.4572 26.2123 11.3751 26.1234 11.3222 26.0188L11.2457 25.8602L11.2514 18.8051L11.2637 11.7501L11.3751 11.6095C11.446 11.5229 11.5337 11.452 11.6327 11.3991C11.7801 11.3282 11.8386 11.317 12.4473 11.317C13.1616 11.317 13.2798 11.3451 13.4676 11.551C14.9257 13.7245 16.3792 15.9037 17.8091 18.0896C20.148 21.6357 23.3408 26.4744 24.9103 28.8482L27.7644 33.1672L27.9051 33.0738C29.2765 32.1592 30.5241 31.0701 31.6008 29.8281C33.8688 27.2316 35.3403 24.0376 35.8387 20.6288C35.9839 19.6388 36.0019 19.3452 36.0019 18.0041C36.0019 16.662 35.9839 16.3751 35.8387 15.3851C34.8588 8.62257 30.0482 2.9457 23.5276 0.840786C22.3081 0.454903 21.0537 0.191648 19.7835 0.0566449C19.4426 0.0217692 17.1161 -0.0198566 16.8236 0.010519L16.8225 0.00826895ZM24.188 10.8951C24.3579 10.9761 24.4861 11.1291 24.5446 11.3046C24.575 11.3991 24.5806 13.3555 24.575 17.7623L24.5626 24.0894L23.45 22.3793L22.3306 20.6682V16.0747C22.3306 13.0968 22.343 11.4273 22.3587 11.3451C22.4116 11.1572 22.5398 10.9997 22.7108 10.9007C22.8503 10.8299 22.9043 10.8242 23.4612 10.8242C23.9821 10.8242 24.0699 10.8299 24.1869 10.8951H24.188Z" fill="url(#paint0_linear_14_44)"/>
<defs>
<linearGradient id="paint0_linear_14_44" x1="18.0009" y1="0" x2="18.0009" y2="36" gradientUnits="userSpaceOnUse">
<stop offset="0.177083" stop-color="#2F2F2F"/>
<stop offset="1" stop-color="#A0A0A0"/>
</linearGradient>
</defs>
</svg>
