<svg width="41" height="41" viewBox="0 0 41 41" fill="none" xmlns="http://www.w3.org/2000/svg">
<path d="M20.506 38.7954C20.0157 38.7954 19.5297 38.6673 19.1 38.4195L14.6242 35.7691C13.9554 35.3949 14.2817 35.2625 14.502 35.1865C15.3938 34.8748 15.574 34.8039 16.5256 34.2632C16.6255 34.2059 16.7562 34.2264 16.8587 34.2871L20.2976 36.3277C20.4214 36.3952 20.5982 36.3952 20.7127 36.3277L34.1205 28.5881C34.2444 28.5172 34.3255 28.3737 34.3255 28.2259V12.7544C34.3255 12.5998 34.2453 12.4623 34.118 12.3854L20.7161 4.65178C20.5923 4.57832 20.4274 4.57832 20.3035 4.65178L6.90338 12.3845C6.77354 12.458 6.69069 12.6024 6.69069 12.7501V28.2225C6.69069 28.3703 6.77098 28.5112 6.8991 28.5813L10.5712 30.7022C12.5648 31.699 13.7828 30.5245 13.7828 29.3432V14.0732C13.7828 13.8554 13.9537 13.6872 14.1723 13.6872H15.8704C16.0822 13.6872 16.2565 13.8546 16.2565 14.0732V29.3509C16.2565 32.009 14.807 33.5363 12.2863 33.5363C11.5108 33.5363 10.9 33.5363 9.19511 32.6975L5.67765 30.6705C4.8081 30.1666 4.27083 29.2262 4.27083 28.2234V12.751C4.27083 11.7439 4.8081 10.8043 5.67679 10.3072L19.0992 2.56419C19.9482 2.08415 21.0757 2.08415 21.9188 2.56419L35.3241 10.3106C36.1885 10.8103 36.7292 11.7473 36.7292 12.7544V28.2268C36.7292 29.2304 36.1885 30.1666 35.3232 30.6705L21.9179 38.4127C21.4883 38.6613 21.0014 38.7885 20.5051 38.7885" fill="#21A366"/>
<path d="M24.6478 28.1337C18.7814 28.1337 17.5514 25.4405 17.5514 23.1821C17.5514 22.9677 17.7248 22.796 17.9401 22.796H19.6723C19.8636 22.796 20.0251 22.9352 20.055 23.124C20.3164 24.8887 21.0954 25.7787 24.6427 25.7787C27.4683 25.7787 28.6701 25.1407 28.6701 23.6416C28.6701 22.7789 28.3276 22.1383 23.938 21.7086C20.266 21.3465 17.9973 20.5376 17.9973 17.601C17.9973 14.8958 20.2796 13.2849 24.102 13.2849C28.3951 13.2849 30.5228 14.7754 30.791 17.9768C30.8013 18.0878 30.7611 18.1946 30.6868 18.2757C30.6133 18.3526 30.5091 18.3996 30.4015 18.3996H28.6599C28.4788 18.3996 28.3207 18.2723 28.284 18.0972C27.8646 16.2411 26.8507 15.6475 24.0952 15.6475C21.0108 15.6475 20.652 16.7212 20.652 17.5266C20.652 18.503 21.0749 18.7882 25.2364 19.3392C29.3577 19.8859 31.3146 20.658 31.3146 23.5545C31.3146 26.474 28.8777 28.1491 24.629 28.1491" fill="#21A366"/>
</svg>
