<svg width="35" height="36" viewBox="0 0 35 36" fill="none" xmlns="http://www.w3.org/2000/svg">
<path d="M25.0957 0C23.695 0.0123758 22.3066 0.211513 20.9588 0.603037L20.8654 0.633414C20.0205 0.48603 19.1598 0.405025 18.3047 0.387024C16.535 0.356647 15.0162 0.784174 13.7921 1.49972C12.5849 1.08457 10.0827 0.356647 7.44557 0.504031C5.61283 0.603037 3.60796 1.15995 2.11837 2.73054C0.642274 4.29552 -0.141899 6.72117 0.0212359 10.0266C0.0673638 10.9346 0.32613 12.4163 0.759282 14.3435C1.18681 16.2663 1.79097 18.5164 2.54702 20.573C3.30306 22.624 4.12774 24.4691 5.4182 25.7225C6.06174 26.3491 6.95279 26.8835 8.00136 26.8374C8.7349 26.807 9.39644 26.4853 9.97135 26.0105C10.2515 26.3795 10.5519 26.537 10.8208 26.6844C11.1673 26.8723 11.4947 27.0005 11.8412 27.0838C12.4623 27.2413 13.5232 27.4472 14.7653 27.2357C15.1872 27.1648 15.6327 27.0253 16.0782 26.8318C16.0962 27.3234 16.1142 27.8095 16.1311 28.3023C16.1952 29.8549 16.238 31.2904 16.6993 32.5505C16.7758 32.7564 16.9817 33.8106 17.7895 34.7478C18.604 35.685 20.1847 36.2655 21.9961 35.8785C23.2686 35.6085 24.8909 35.1168 25.9698 33.5822C27.0364 32.0701 27.5168 29.8965 27.6113 26.3683C27.6338 26.1747 27.6642 26.0172 27.6923 25.8642L27.9443 25.8879H27.9747C29.3338 25.9464 30.811 25.7528 32.0475 25.1779C33.1365 24.6739 33.9635 24.1642 34.5665 23.2563C34.7139 23.0324 34.8826 22.7579 34.9254 22.2888C34.9715 21.8264 34.7015 21.0928 34.256 20.7542C33.3661 20.0746 32.8035 20.3323 32.1994 20.4616C31.6087 20.591 31.0034 20.6597 30.4004 20.6777C32.1341 17.7604 33.3762 14.6552 34.0861 11.9111C34.508 10.2876 34.7431 8.79355 34.76 7.48734C34.7836 6.18113 34.6734 5.02681 33.8926 4.0255C31.4433 0.902306 28.0028 0.0337521 25.3432 0.00562535C25.2611 0.00562535 25.18 0.00562535 25.0968 0.00562535L25.0957 0ZM25.0248 0.961935C27.5393 0.938308 30.7548 1.64148 33.0634 4.59366C33.5854 5.25633 33.7384 6.22276 33.7204 7.41871C33.7024 8.61466 33.4808 10.0379 33.0758 11.6028C32.2972 14.6394 30.8133 18.1654 28.7341 21.3369C28.805 21.3898 28.886 21.436 28.9682 21.4663C29.4013 21.6475 30.3914 21.7994 32.3715 21.3955C32.8699 21.2886 33.2344 21.2199 33.6147 21.5068C33.8026 21.6643 33.9016 21.8995 33.8892 22.1459C33.8667 22.327 33.8026 22.5025 33.6901 22.6499C33.3087 23.2226 32.5549 23.7693 31.5873 24.2205C30.7323 24.6177 29.5003 24.8235 28.418 24.8359C27.8678 24.8415 27.3638 24.7999 26.934 24.6649L26.9115 24.6604C26.7461 26.2479 26.367 29.3891 26.1195 30.8179C25.9215 31.9711 25.5749 32.8925 24.9134 33.5777C24.2507 34.2696 23.3192 34.6791 22.0591 34.9492C20.5009 35.2833 19.3691 34.9255 18.6378 34.3101C17.9065 33.6947 17.5712 32.8745 17.3721 32.3761C17.2326 32.0307 17.1617 31.5852 17.0919 30.9867C17.021 30.3893 16.9749 29.6625 16.9389 28.8367C16.8928 27.5766 16.8748 26.3165 16.8928 25.0508C16.2436 25.6493 15.4347 26.0409 14.5661 26.1939C13.5299 26.3694 12.6096 26.1939 12.0595 26.0589C11.7895 25.988 11.5251 25.889 11.2798 25.754C11.0222 25.619 10.7814 25.4671 10.6183 25.1611C10.5238 24.9855 10.4956 24.7819 10.5361 24.5884C10.5823 24.3893 10.6993 24.2194 10.859 24.09C11.1572 23.8481 11.551 23.7153 12.1416 23.5916C13.2206 23.3677 13.6008 23.2169 13.8292 23.0336C14.0227 22.8817 14.2466 22.5655 14.6314 22.102C14.6314 22.0851 14.6314 22.0615 14.6258 22.0435C13.9293 22.021 13.2487 21.8399 12.6333 21.5046C12.4116 21.7386 11.2562 22.9582 9.8566 24.6458C9.27043 25.3478 8.62014 25.7528 7.92935 25.7832C7.24418 25.8113 6.62089 25.4671 6.09436 24.9563C5.04017 23.9302 4.19524 22.1661 3.46282 20.1736C2.7304 18.1811 2.13862 15.9614 1.71109 14.0746C1.28919 12.1811 1.03717 10.6578 1.00117 9.92536C0.843662 6.80217 1.57608 4.69942 2.82941 3.36846C4.08274 2.0375 5.80072 1.54022 7.47707 1.44121C10.4833 1.27133 13.3421 2.31989 13.917 2.54266C15.0297 1.78661 16.4653 1.31858 18.2586 1.34671C19.1092 1.35908 19.9518 1.46934 20.7788 1.67523L20.8091 1.65723C21.1725 1.5346 21.5416 1.42321 21.9162 1.34221C22.9367 1.10032 23.9785 0.977686 25.0214 0.96081L25.0248 0.961935ZM25.2532 1.96325H25.0315C24.1765 1.97337 23.3136 2.07463 22.4765 2.25576C24.3452 3.08269 25.7572 4.35289 26.7529 5.63097C27.4448 6.50965 28.013 7.47609 28.4461 8.50778C28.6171 8.90718 28.7285 9.2402 28.787 9.49784C28.8219 9.62722 28.8399 9.73748 28.8511 9.84886C28.8511 9.90736 28.8568 9.96699 28.8275 10.066C28.8275 10.0716 28.8219 10.084 28.8219 10.0896C28.8703 11.4026 28.5418 12.2914 28.499 13.5458C28.4709 14.4549 28.7049 15.5215 28.7634 16.687C28.8163 17.7817 28.6824 18.9833 27.9725 20.1669C28.031 20.2378 28.0839 20.3075 28.1424 20.384C30.0235 17.4183 31.3826 14.1433 32.1037 11.3475C32.4907 9.84099 32.6944 8.47628 32.7124 7.39958C32.7304 6.32064 32.5312 5.53534 32.2725 5.20795C30.2564 2.63491 27.5326 1.97787 25.2521 1.96212L25.2532 1.96325ZM18.0629 2.34915C16.2942 2.35477 15.0218 2.88918 14.0565 3.69135C13.0585 4.52391 12.3914 5.6546 11.9582 6.82017C11.4362 8.19726 11.2551 9.53272 11.1842 10.4418L11.2078 10.4294C11.7422 10.1313 12.4443 9.82636 13.2003 9.65647C13.9507 9.47984 14.7653 9.42696 15.4966 9.71498C16.2357 9.99512 16.8388 10.669 17.0615 11.6827C18.118 16.57 16.7341 18.387 16.2245 19.7574C16.031 20.2558 15.8611 20.7598 15.7261 21.2751C15.7902 21.2627 15.8555 21.2447 15.9196 21.2391C16.283 21.2109 16.5631 21.3279 16.7285 21.3977C17.2449 21.6137 17.5959 22.0592 17.7895 22.5689C17.8356 22.7039 17.8705 22.8434 17.8941 22.9964C17.9121 23.0549 17.9245 23.1191 17.9245 23.1843C17.866 25.0531 17.8705 26.9229 17.9413 28.7917C17.9773 29.6006 18.0302 30.3094 18.0944 30.8719C18.1585 31.4288 18.2462 31.8563 18.3059 32.0026C18.4983 32.483 18.7795 33.1097 19.2903 33.5372C19.7943 33.9659 20.52 34.2471 21.851 33.9659C23.0042 33.7138 23.7141 33.3729 24.1877 32.8813C24.6636 32.3829 24.9438 31.6977 25.1249 30.6492C25.4006 29.0729 25.9451 24.5018 26.0103 23.6467C25.9822 22.9953 26.0745 22.498 26.286 22.1166C26.4964 21.7296 26.8249 21.49 27.1129 21.3606C27.2524 21.2964 27.3874 21.2559 27.4988 21.2199C27.3818 21.0568 27.2592 20.8925 27.1354 20.7339C26.7259 20.2355 26.385 19.6797 26.133 19.0879C26.016 18.8404 25.8866 18.594 25.746 18.36C25.5479 18.0034 25.2959 17.5511 25.0315 17.0414C24.5039 16.0334 23.9301 14.8037 23.6308 13.6077C23.3327 12.4118 23.2922 11.1764 24.0539 10.309C24.7278 9.53497 25.917 9.21432 27.6912 9.39546C27.6383 9.23682 27.6102 9.10181 27.5213 8.89705C27.1174 7.94749 26.5898 7.05644 25.9563 6.24751C24.4499 4.32027 22.0062 2.40877 18.2395 2.34465L18.0629 2.34915ZM8.10261 2.42565C7.91473 2.42565 7.72121 2.43128 7.53445 2.44365C6.01673 2.53253 4.58677 2.97018 3.56071 4.05475C2.53577 5.14494 1.86298 6.9203 2.00811 9.86799C2.03849 10.4305 2.27813 11.9887 2.69328 13.8462C3.11068 15.7048 3.70134 17.8909 4.41126 19.8237C5.11893 21.751 5.97623 23.433 6.79641 24.2295C7.20593 24.6222 7.56258 24.7864 7.88547 24.7752C8.20837 24.7572 8.60102 24.5693 9.08142 23.9955C9.95448 22.9413 10.8579 21.9209 11.7951 20.9252C10.4461 19.7472 9.78459 17.9674 10.049 16.1965C10.2009 15.0894 10.2245 14.051 10.2009 13.2308C10.184 12.4343 10.13 11.9077 10.13 11.5736C10.13 11.5612 10.13 11.5556 10.13 11.5432V11.5376L10.1244 11.5275C10.1244 9.79823 10.4304 8.08813 11.0154 6.46465C11.4373 5.34408 12.0595 4.21451 12.9955 3.29308C12.0764 2.98819 10.4405 2.53253 8.6719 2.44365C8.48401 2.43128 8.2905 2.42565 8.10374 2.42565H8.10261ZM26.7 10.3473C25.6818 10.3653 25.1125 10.6297 24.8088 10.9683C24.3857 11.4555 24.3452 12.3105 24.6096 13.3658C24.8718 14.42 25.4186 15.598 25.9282 16.5779C26.1802 17.0696 26.4266 17.5095 26.6246 17.8661C26.8305 18.2295 26.9768 18.4815 27.0645 18.7043C27.1467 18.9034 27.2412 19.0789 27.3346 19.2432C27.7272 18.4106 27.7981 17.5961 27.7565 16.741C27.7036 15.6868 27.4583 14.6079 27.4988 13.5188C27.5404 12.2408 27.7925 11.4082 27.8105 10.4238C27.4459 10.3776 27.0713 10.3473 26.7023 10.3473H26.7ZM14.349 10.525C14.0385 10.525 13.728 10.5655 13.4231 10.6364C12.8189 10.7838 12.2395 11.0054 11.6938 11.3103C11.5127 11.4093 11.3372 11.5218 11.1729 11.6512L11.1369 11.6793C11.1493 11.9032 11.1898 12.4298 11.2078 13.2151C11.2258 14.0701 11.2078 15.1592 11.0447 16.3383C10.6813 18.9045 12.5444 21.0264 14.7304 21.0321C14.8598 20.5044 15.069 19.97 15.2806 19.4086C15.8892 17.7671 17.0852 16.5723 16.0771 11.8965C15.914 11.1348 15.5855 10.8243 15.1332 10.6488C14.8812 10.5599 14.619 10.5194 14.349 10.5262V10.525ZM26.2264 10.8288H26.3029C26.3962 10.8344 26.4908 10.8412 26.5718 10.8637C26.6483 10.8817 26.7191 10.9053 26.7776 10.9458C26.8361 10.9807 26.8767 11.0392 26.889 11.1089V11.1213C26.889 11.1922 26.871 11.2619 26.8361 11.3272C26.79 11.4082 26.7371 11.4847 26.673 11.5488C26.52 11.7187 26.3141 11.8312 26.0925 11.865C25.8753 11.8954 25.6593 11.8369 25.4771 11.7131C25.4062 11.6591 25.3364 11.6006 25.2836 11.5365C25.2307 11.4836 25.2014 11.4138 25.189 11.343C25.1845 11.2743 25.2014 11.2034 25.2476 11.1506C25.3016 11.0966 25.3601 11.0504 25.4242 11.0156C25.5693 10.9334 25.7628 10.8749 25.9867 10.8445C26.0677 10.8344 26.1499 10.8277 26.2264 10.822V10.8288ZM14.4941 11.0808C14.5706 11.0808 14.6595 11.0864 14.7416 11.0977C14.9757 11.1337 15.1748 11.1922 15.3323 11.2856C15.4088 11.3216 15.4797 11.3801 15.5314 11.4442C15.59 11.5151 15.6181 11.6017 15.6136 11.6962C15.5956 11.7829 15.5596 11.8661 15.5011 11.9302C15.4369 12.0067 15.3672 12.0709 15.2851 12.1238C15.0915 12.2644 14.8519 12.3229 14.6111 12.2936C14.3693 12.2531 14.1476 12.1361 13.9845 11.955C13.9136 11.8785 13.8551 11.7964 13.8078 11.7086C13.755 11.6265 13.7325 11.5331 13.7437 11.4386C13.7673 11.2811 13.9023 11.1922 14.0317 11.1461C14.1791 11.0977 14.3366 11.0819 14.4941 11.0876V11.0808ZM28.0839 22.0964H28.0782C27.8622 22.1785 27.6811 22.2089 27.5281 22.2798C27.3706 22.3383 27.2457 22.4553 27.1714 22.6004C27.0713 22.7714 26.9959 23.0763 27.0184 23.5961C27.0825 23.6445 27.159 23.6782 27.2423 23.703C27.4943 23.7795 27.9275 23.8324 28.4079 23.8256C29.3631 23.8132 30.541 23.5916 31.1677 23.2979C31.6773 23.0639 32.1577 22.7478 32.5796 22.3788C30.4881 22.8063 29.3113 22.6949 28.5834 22.3968C28.4079 22.3203 28.238 22.2201 28.085 22.0964H28.0839ZM16.0366 22.237H16.0062C15.9252 22.2426 15.8127 22.273 15.5843 22.5194C15.0623 23.1044 14.8812 23.4735 14.4536 23.8144C14.0205 24.1597 13.4636 24.342 12.3441 24.5704C11.9931 24.6413 11.7872 24.7223 11.6522 24.7864C11.6927 24.8224 11.6927 24.8348 11.7568 24.8629C11.9222 24.9574 12.1315 25.0339 12.3025 25.0801C12.7829 25.1971 13.5671 25.3377 14.394 25.1971C15.2142 25.0564 16.0692 24.6627 16.8028 23.6388C16.9322 23.4633 16.9423 23.1989 16.8377 22.9177C16.733 22.6432 16.5035 22.3968 16.346 22.3326C16.2459 22.2843 16.1401 22.2561 16.0355 22.2381L16.0366 22.237Z" fill="url(#paint0_linear_14_38)"/>
<defs>
<linearGradient id="paint0_linear_14_38" x1="17.4653" y1="0" x2="17.4653" y2="36" gradientUnits="userSpaceOnUse">
<stop stop-color="#16A0DB" stop-opacity="0.78"/>
<stop offset="1" stop-color="#0076FF" stop-opacity="0.67"/>
</linearGradient>
</defs>
</svg>
