<svg width="41" height="36" viewBox="0 0 41 36" fill="none" xmlns="http://www.w3.org/2000/svg">
<path d="M20.2309 14.3922C18.2419 14.3922 16.6222 16.0119 16.6222 18.0009C16.6222 19.9898 18.2419 21.6095 20.2309 21.6095C22.2198 21.6095 23.8395 19.9898 23.8395 18.0009C23.8395 16.0119 22.2198 14.3922 20.2309 14.3922ZM10.1281 25.1727L9.33148 24.9754C3.40384 23.4733 0 20.9318 0 17.9945C0 15.0573 3.40511 12.5158 9.33148 11.0136L10.1281 10.8164L10.3519 11.6066C10.9512 13.674 11.7213 15.6895 12.6506 17.6392L12.8213 17.9945L12.6506 18.3562C11.7225 20.2983 10.9512 22.3138 10.3519 24.3888L10.1281 25.1727ZM8.96353 12.8572C4.45837 14.1216 1.69307 16.0638 1.69307 17.9945C1.69307 19.9253 4.45964 21.8599 8.96353 23.1319C9.51735 21.3731 10.1824 19.6611 10.9588 17.9945C10.1812 16.328 9.51609 14.616 8.96353 12.8572ZM30.3336 25.1727L30.1098 24.3824C29.5105 22.3151 28.7405 20.2996 27.8111 18.3562L27.6404 17.9945L27.8111 17.6329C28.7392 15.6907 29.5105 13.6753 30.1098 11.6003L30.3336 10.8164L31.1302 11.0136C37.0579 12.5158 40.4617 15.0573 40.4617 17.9945C40.4617 20.9318 37.0566 23.4733 31.1302 24.9754L30.3336 25.1727ZM29.5029 17.9945C30.3134 19.7458 30.9848 21.4654 31.4982 23.1319C36.0097 21.8612 38.7686 19.9253 38.7686 17.9945C38.7686 16.0638 36.0021 14.1292 31.4982 12.8572C30.9444 14.6084 30.2793 16.328 29.5029 17.9945ZM8.94962 12.8508L8.72582 12.0606C7.0593 6.18604 7.56634 1.9717 10.1154 0.502436C12.6177 -0.940277 16.6285 0.765437 20.8365 5.08599L21.4093 5.67268L20.8365 6.25938C19.342 7.81336 17.9789 9.4862 16.7537 11.264L16.5236 11.5864L16.1278 11.6193C13.9745 11.79 11.8401 12.1326 9.74621 12.6473L8.94962 12.8508ZM12.1499 1.67583C11.696 1.67583 11.2939 1.76813 10.9575 1.96538C9.2847 2.93393 8.98882 6.29225 10.1407 10.8227C11.9387 10.4206 13.7557 10.1374 15.5942 9.97301C16.6475 8.47086 17.8069 7.03574 19.0511 5.68533C16.4237 3.1236 13.934 1.67456 12.1499 1.67456V1.67583ZM28.3181 35.9987C28.3118 35.9987 28.3118 35.9987 28.3181 35.9987C25.9145 35.9987 22.8255 34.1944 19.6252 30.9018L19.0524 30.3151L19.6252 29.7284C21.1197 28.1745 22.4828 26.5016 23.708 24.7238L23.9318 24.4014L24.3276 24.3622C26.4809 24.1978 28.6153 23.8552 30.7155 23.3342L31.5121 23.137L31.7359 23.9272C33.4024 29.8018 32.8954 34.0098 30.3463 35.4778C29.7267 35.8331 29.0287 36.0114 28.3181 35.9975V35.9987ZM21.4093 30.3025C24.0368 32.8642 26.5264 34.3133 28.3106 34.3133H28.3169C28.7645 34.3133 29.1666 34.2146 29.5029 34.0237C31.1757 33.0551 31.4792 29.6968 30.3197 25.1664C28.5217 25.5685 26.6971 25.8517 24.8662 26.0098C23.813 27.5182 22.6535 28.947 21.4093 30.3037V30.3025ZM31.5121 12.8508L30.7155 12.6473C28.6153 12.1339 26.4809 11.7913 24.3276 11.6193L23.9318 11.5864L23.708 11.264C22.4828 9.4862 21.1197 7.81336 19.6252 6.25938L19.0524 5.67268L19.6252 5.08599C23.8332 0.765437 27.844 -0.940277 30.3463 0.502436C32.8954 1.97044 33.4024 6.18604 31.7359 12.0606L31.5121 12.8508ZM24.8675 9.97301C26.7907 10.1513 28.6216 10.4345 30.321 10.8227C31.4805 6.29225 31.177 2.93267 29.5042 1.96538C27.8377 1.00441 24.7031 2.47874 21.4106 5.68659C22.6548 7.04332 23.8079 8.47213 24.8675 9.97427V9.97301ZM12.1499 35.9987C11.438 36.0114 10.7337 35.8344 10.1154 35.4791C7.56634 34.0111 7.0593 29.8018 8.72582 23.9285L8.94962 23.1382L9.74621 23.3355C11.696 23.8299 13.843 24.1713 16.1278 24.3635L16.5236 24.4027L16.7474 24.7251C17.9726 26.5029 19.3356 28.1757 20.8302 29.7297L21.403 30.3164L20.8302 30.9031C17.6362 34.1957 14.5472 36 12.1499 36V35.9987ZM10.142 25.1664C8.9825 29.6968 9.28596 33.0564 10.9588 34.0237C12.6253 34.972 15.7535 33.5103 19.0524 30.3025C17.8082 28.9458 16.6487 27.5169 15.5955 26.0085C13.7582 25.8504 11.94 25.5672 10.142 25.1651V25.1664ZM20.2309 26.226C18.8412 26.226 17.4188 26.1665 15.99 26.0477L15.5942 26.0148L15.3641 25.6861C14.5612 24.5266 13.7962 23.3355 13.0919 22.1103C12.38 20.885 11.7288 19.6345 11.1232 18.3562L10.9525 17.9945L11.1232 17.6329C11.7288 16.3558 12.3813 15.1041 13.0919 13.8788C13.7899 12.6738 14.5536 11.4688 15.3641 10.303L15.5942 9.97427L15.99 9.94139C18.8147 9.70368 21.6533 9.70368 24.4717 9.94139L24.8675 9.97427L25.0976 10.303C26.7111 12.6207 28.1335 15.0775 29.3385 17.6329L29.5092 17.9945L29.3385 18.3562C28.1335 20.9116 26.7174 23.3684 25.0976 25.6861L24.8675 26.0148L24.4717 26.0477C23.0493 26.1665 21.6205 26.226 20.2309 26.226ZM16.5299 24.3951C19.0195 24.586 21.4422 24.586 23.9382 24.3951C25.3278 22.3606 26.5656 20.2199 27.6391 17.9933C26.572 15.7679 25.3341 13.6272 23.9318 11.5915C21.4687 11.4005 18.993 11.4005 16.5299 11.5915C15.1276 13.6259 13.8885 15.7666 12.8226 17.9933C13.8961 20.2187 15.1339 22.3593 16.5299 24.3951Z" fill="url(#paint0_linear_14_8)"/>
<defs>
<linearGradient id="paint0_linear_14_8" x1="20.2309" y1="0" x2="20.2309" y2="36" gradientUnits="userSpaceOnUse">
<stop stop-color="#16ACDB" stop-opacity="0.78"/>
<stop offset="1" stop-color="#0076FF" stop-opacity="0.67"/>
</linearGradient>
</defs>
</svg>
