<svg width="38" height="36" viewBox="0 0 38 36" fill="none" xmlns="http://www.w3.org/2000/svg">
<path d="M26.3082 25.1243C27.6856 25.0069 28.7486 23.7955 28.6809 22.3493C28.6062 20.9031 27.4198 19.7428 25.9807 19.7428H25.8811C24.3921 19.7915 23.2247 21.0467 23.2745 22.5415C23.3232 23.302 23.6316 23.913 24.0588 24.3638C22.3966 27.5896 19.9123 29.9577 16.1372 31.952C13.6042 33.2748 10.9277 33.7755 8.32121 33.4172C6.13942 33.1147 4.43457 32.1395 3.39055 30.5746C1.82569 28.2018 1.68332 25.6499 2.98836 23.0861C3.93866 21.2389 5.36115 19.884 6.30552 19.2232C6.0718 18.6062 5.78707 17.5681 5.6447 16.7828C-1.37402 21.8071 -0.657438 28.6847 1.47452 31.9295C3.0631 34.3023 6.30552 35.8161 9.85878 35.8161C10.8115 35.8161 11.8057 35.7485 12.7761 35.5065C18.9442 34.3201 23.6091 30.6244 26.2832 25.1753L26.3082 25.1243ZM34.7672 19.1994C31.0976 14.8857 25.69 12.5129 19.5303 12.5129H18.72C18.3249 11.6409 17.3971 11.0928 16.3531 11.0928H16.2855C14.7906 11.0928 13.628 12.3777 13.6766 13.8678C13.7276 15.2879 14.9306 16.4743 16.3768 16.4743H16.4955C17.5632 16.4257 18.4851 15.7636 18.8683 14.8122H19.745C23.3979 14.8122 26.8527 15.8811 30.0097 17.9644C32.4193 19.5506 34.1562 21.641 35.1255 24.1301C35.9785 26.1624 35.9286 28.1591 35.0507 29.8212C33.7041 32.4218 31.4239 33.7992 28.4211 33.7992C26.5241 33.7992 24.6769 33.206 23.7242 32.7801C23.1559 33.2499 22.2044 34.0341 21.5175 34.5111C23.6067 35.4554 25.7138 36 27.7532 36C32.3754 36 35.8112 33.3982 37.115 30.8843C38.5352 28.0417 38.4189 23.2522 34.7909 19.1496L34.7672 19.1994ZM10.261 25.9773C10.312 27.3974 11.515 28.5838 12.9671 28.5838H13.0609C14.5806 28.5352 15.7362 27.28 15.6674 25.7851C15.6674 24.3626 14.4383 23.1762 12.992 23.1762H12.8924C12.801 23.1762 12.6587 23.1762 12.5353 23.2273C10.5706 19.9089 9.74132 16.3497 10.0498 12.5117C10.2361 9.62048 11.1875 7.11126 12.8924 5.0232C14.3149 3.24954 16.989 2.36567 18.8184 2.32296C23.9354 2.22331 26.0732 8.60612 26.2346 11.1403L28.6074 11.8509C28.0569 4.07764 23.2259 0 18.6037 0C14.2662 0 10.261 3.15107 8.64865 7.77327C6.44789 13.9413 7.8941 19.8603 10.5943 24.6059C10.3606 24.9084 10.2183 25.4589 10.261 25.9773Z" fill="url(#paint0_linear_14_5)"/>
<defs>
<linearGradient id="paint0_linear_14_5" x1="18.9802" y1="0" x2="18.9802" y2="36" gradientUnits="userSpaceOnUse">
<stop stop-color="#BF16DB" stop-opacity="0.78"/>
<stop offset="1" stop-color="#0076FF" stop-opacity="0.67"/>
</linearGradient>
</defs>
</svg>
