<svg 
    
width="48" height="36" viewBox="0 0 48 36" fill="none" xmlns="http://www.w3.org/2000/svg">
<path d="M22.6367 27.2165C22.6142 27.2615 22.5917 27.2975 22.6367 27.2165V27.2165ZM41.3191 20.692C39.8103 20.692 38.3224 21.037 36.9695 21.7044C36.527 20.812 36.0696 20.032 35.9946 19.4471C35.9046 18.7647 35.8071 18.3597 35.9121 17.5498C36.0171 16.7398 36.4895 15.5924 36.482 15.5099C36.4745 15.4274 36.377 15.015 35.4096 15.0075C34.4422 15 33.6098 15.1949 33.5123 15.4499C33.3413 15.9164 33.2078 16.3948 33.1148 16.8823C32.9423 17.7597 31.1815 20.8945 30.1841 22.5293C29.8541 21.8919 29.5766 21.3294 29.5166 20.8795C29.4266 20.197 29.3291 19.7921 29.4341 18.9821C29.5391 18.1722 30.0116 17.0248 30.0041 16.9423C29.9966 16.8598 29.8991 16.4473 28.9332 16.4398C27.9672 16.4323 27.1333 16.6273 27.0358 16.8823C26.9383 17.1373 26.8333 17.7372 26.6383 18.3147C26.4434 18.8921 24.0961 24.1117 23.4826 25.4691C23.1676 26.1591 22.8976 26.714 22.7027 27.089C22.6727 27.149 22.6502 27.1865 22.6352 27.2165C22.6577 27.179 22.6727 27.1415 22.6727 27.1565C22.5077 27.4789 22.4102 27.6589 22.4102 27.6589V27.6664C22.2827 27.9064 22.1402 28.1239 22.0727 28.1239C22.0277 28.1239 21.9302 27.4939 22.0952 26.6315C22.4477 24.8167 23.2801 21.9969 23.2726 21.8994C23.2651 21.8469 23.4301 21.3594 22.7252 21.097C22.0427 20.8495 21.7952 21.2619 21.7352 21.2619C21.6752 21.2619 21.6303 21.4119 21.6303 21.4119C21.6303 21.4119 22.3877 18.2322 20.1754 18.2322C18.7955 18.2322 16.8756 19.7471 15.9322 21.1195C15.3398 21.4419 14.0574 22.1394 12.7075 22.8818C12.19 23.1668 11.6576 23.4593 11.1551 23.7367C11.1176 23.6993 11.0876 23.6618 11.0501 23.6243C8.36533 20.7595 3.40974 18.7347 3.61972 14.8875C3.69471 13.4851 4.18217 9.80288 13.1499 5.33325C20.4993 1.67355 26.3744 2.67846 27.3868 4.91328C28.8417 8.10052 24.2445 14.0325 16.6132 14.8875C13.7034 15.2099 12.175 14.085 11.7926 13.6651C11.3951 13.2226 11.3351 13.2001 11.1851 13.2826C10.9376 13.4176 11.0951 13.8076 11.1851 14.04C11.4101 14.6325 12.3475 15.6824 13.9449 16.2074C15.3473 16.6648 18.758 16.9198 22.8811 15.3224C27.5143 13.5376 31.1215 8.56548 30.0626 4.40332C28.9856 0.173667 21.9722 -1.21372 15.3413 1.14109C11.3891 2.54347 7.11593 4.7483 4.04268 7.62056C0.390481 11.0403 -0.192971 14.0175 0.0470095 15.2624C0.90194 19.6796 6.98994 22.5593 9.42575 24.6892C9.30576 24.7567 9.19326 24.8167 9.08827 24.8767C7.86587 25.4841 3.22525 27.9139 2.06285 30.4787C0.750452 33.3885 2.28033 35.4733 3.28375 35.7583C6.41849 36.6282 9.62673 35.0608 11.3516 32.4885C13.0764 29.9162 12.8665 26.5565 12.0715 25.0266C12.064 25.0041 12.049 24.9891 12.0415 24.9666C12.3565 24.7792 12.679 24.5917 13.0015 24.4042C13.6239 24.0367 14.2314 23.6993 14.7638 23.4068C14.4638 24.2167 14.2464 25.1916 14.1339 26.6015C13.9989 28.2514 14.6813 30.3887 15.5662 31.2286C15.9562 31.5961 16.4272 31.6036 16.7212 31.6036C17.7561 31.6036 18.221 30.7487 18.7385 29.7288C19.3759 28.4839 19.9384 27.0365 19.9384 27.0365C19.9384 27.0365 19.2334 30.9512 21.1608 30.9512C21.8657 30.9512 22.5707 30.0437 22.8857 29.5788V29.5863C22.8857 29.5863 22.9006 29.5563 22.9381 29.4963C23.0131 29.3838 23.0506 29.3163 23.0506 29.3163V29.2938C23.3356 28.8063 23.9581 27.6889 24.8955 25.8441C26.1104 23.4593 27.2713 20.482 27.2713 20.482C27.3838 21.136 27.5398 21.7824 27.7363 22.4169C27.9462 23.1293 28.3887 23.9092 28.7412 24.6667C28.4562 25.0566 28.2837 25.2816 28.2837 25.2816C28.2837 25.2876 28.2867 25.2921 28.2912 25.2966C28.0662 25.5966 27.8112 25.9191 27.5488 26.234C26.5903 27.374 25.4489 28.6788 25.299 29.0538C25.119 29.4963 25.164 29.8263 25.5089 30.0812C25.7639 30.2762 26.2139 30.3062 26.6863 30.2687C27.5488 30.2087 28.1562 29.9987 28.4487 29.8637C28.9886 29.6703 29.4971 29.4033 29.9636 29.0688C30.901 28.3789 31.4709 27.389 31.4185 26.0841C31.3885 25.3641 31.156 24.6442 30.871 23.9692C30.9535 23.8492 31.0435 23.7218 31.126 23.5943C32.6094 21.4269 33.7583 19.0481 33.7583 19.0481C33.8708 19.7021 34.0252 20.3485 34.2232 20.983C34.4032 21.5904 34.7557 22.2579 35.0782 22.9103C33.6833 24.0427 32.8208 25.3551 32.5224 26.2175C31.9674 27.8149 32.4024 28.5349 33.2198 28.6998C33.5873 28.7748 34.1122 28.6024 34.5022 28.4374C35.0812 28.2439 35.6271 27.9634 36.1206 27.6049C37.058 26.915 37.9654 25.9476 37.9039 24.6352C37.8814 24.0427 37.7164 23.4503 37.499 22.8803C38.6764 22.3854 40.2062 22.1154 42.1561 22.3404C46.3317 22.8278 47.1492 25.4376 46.9917 26.525C46.8342 27.6124 45.9568 28.2199 45.6643 28.3999C45.3718 28.5799 45.2818 28.6474 45.3043 28.7823C45.3418 28.9773 45.4768 28.9698 45.7243 28.9248C46.0693 28.8648 47.9141 28.0399 47.9966 26.0226C48.1166 23.4728 45.6643 20.668 41.3221 20.6905L41.3191 20.692ZM9.13327 31.5436C7.75338 33.051 5.82004 33.6209 4.98761 33.141C4.09518 32.622 4.44765 30.4037 6.14851 28.7973C7.18343 27.8224 8.51832 26.9225 9.40325 26.3675C9.60573 26.2475 9.89821 26.0676 10.2582 25.8501C10.3182 25.8126 10.3482 25.7976 10.3482 25.7976C10.4157 25.7526 10.4907 25.7151 10.5657 25.6701C11.1866 27.9499 10.5882 29.9597 9.13327 31.5421V31.5436ZM19.2094 24.6892C18.7295 25.8666 17.7186 28.8663 17.1021 28.7088C16.5772 28.5739 16.2547 26.2865 16.9971 24.0367C17.3721 22.9043 18.167 21.5544 18.6395 21.0295C19.3969 20.182 20.2294 19.9121 20.4243 20.2495C20.6868 20.692 19.5094 23.9542 19.2094 24.6892ZM27.5338 28.6638C27.3313 28.7688 27.1438 28.8363 27.0538 28.7838C26.9863 28.7463 27.1363 28.6039 27.1363 28.6039C27.1363 28.6039 28.1787 27.4864 28.5912 26.9765C28.8312 26.6765 29.1086 26.324 29.4086 25.9341C29.4086 25.9716 29.4161 26.0091 29.4161 26.0541C29.4071 27.3965 28.1172 28.3039 27.5323 28.6638H27.5338ZM33.9532 27.2015C33.8033 27.0965 33.8258 26.744 34.3282 25.6491C34.5232 25.2216 34.9732 24.5017 35.7531 23.8117C35.8416 24.0727 35.8896 24.3457 35.8956 24.6217C35.8881 26.309 34.6807 26.939 33.9532 27.2015Z" fill="url(#paint0_linear_14_29)"/>
<defs>
<linearGradient id="paint0_linear_14_29" x1="24.0004" y1="0" x2="24.0004" y2="36" gradientUnits="userSpaceOnUse">
<stop stop-color="#DB1675" stop-opacity="0.78"/>
<stop offset="1" stop-color="#DB00FF" stop-opacity="0.67"/>
</linearGradient>
</defs>
</svg>
