<svg width="37" height="36" viewBox="0 0 37 36" fill="none" xmlns="http://www.w3.org/2000/svg">
<path d="M20.8703 33.3C20.9189 33.1931 21.0414 33.1189 21.1305 33.0289C22.4891 31.6429 23.8592 30.2693 25.1993 28.8664C25.6187 28.4896 25.9427 28.0234 26.1461 27.5045C26.3495 26.9855 26.4267 26.4278 26.3718 25.875C26.3297 25.6383 26.2745 25.4039 26.2064 25.173C25.841 25.5105 25.5011 25.8176 25.1588 26.127C24.627 26.6085 24.0974 27.0923 23.5609 27.5681C23.2446 27.882 22.8378 28.095 22.3944 28.1792C21.9509 28.2634 21.4917 28.2147 21.0773 28.0395C20.6578 27.8896 20.2928 27.6231 20.0277 27.2731C19.7625 26.9231 19.6088 26.505 19.5857 26.0708C19.5733 26.0149 19.5567 25.96 19.536 25.9065C19.1278 26.244 18.737 26.5545 18.3497 26.874L10.2987 33.5115C10.2432 33.5576 10.1831 33.615 10.1311 33.66H20.8645L20.8483 33.6499C20.7905 33.6105 20.8206 33.4035 20.8703 33.3Z" fill="#FFCEBF"/>
<path d="M9.63966 33.3C9.73513 33.179 9.85036 33.0741 9.98075 32.9895L21.1224 23.7926C21.8824 23.1649 22.639 22.5337 23.3921 21.8992C23.4851 21.8361 23.5581 21.7488 23.6025 21.6472C23.7827 20.8835 23.8082 20.0929 23.6777 19.3196C23.5621 19.3984 23.4996 19.4321 23.4464 19.4872C22.5342 20.2815 21.6265 21.0825 20.7096 21.8722C20.4058 22.1697 20.013 22.3658 19.5875 22.4323C19.162 22.4988 18.7258 22.4323 18.3416 22.2424C17.9496 22.0623 17.6216 21.7729 17.3992 21.4109C17.1768 21.0489 17.0702 20.6307 17.0928 20.2095C17.0928 20.1139 17.0928 20.0194 17.0928 19.845C16.9252 19.9642 16.8026 20.0441 16.6882 20.1341C12.2289 23.6081 7.77038 27.0795 3.31266 30.5482C3.11147 30.7046 2.87097 31.0534 2.60734 30.7147C2.34372 30.3761 2.74494 30.2366 2.94728 30.0791C7.69947 26.3689 12.454 22.662 17.2108 18.9585C17.9855 18.3544 18.0363 18.1012 17.5322 17.1416L17.2316 17.4161C16.4072 18.162 15.5735 18.8977 14.7618 19.656C14.4289 19.9685 14.0119 20.183 13.559 20.2747C13.1061 20.3664 12.6358 20.3316 12.2023 20.1743C11.7689 20.017 11.39 19.7437 11.1094 19.3858C10.8289 19.028 10.658 18.6002 10.6167 18.1519C10.4629 18.2644 10.3299 18.3465 10.2039 18.4421L3.15078 23.7611C3.02913 23.8772 2.89041 23.975 2.73916 24.0514C2.625 24.0849 2.50242 24.079 2.39228 24.0345V33.6656H9.62578C9.59889 33.6078 9.58614 33.5447 9.58855 33.4812C9.59096 33.4178 9.60845 33.3558 9.63966 33.3Z" fill="#FFCEBF"/>
<path d="M29.1803 2.72587C28.9837 3.3525 28.7929 3.98025 28.6207 4.61362C28.4615 5.06121 28.48 5.55051 28.6726 5.9855C28.8651 6.4205 29.2177 6.7698 29.6613 6.96487C31.018 7.65877 32.5469 7.97047 34.0758 7.86487V2.83275C34.0589 2.72242 34.0651 2.60988 34.0943 2.502C34.1267 2.44097 34.1676 2.38457 34.2157 2.33437H29.1757C29.2531 2.42212 29.2265 2.57625 29.1803 2.72587Z" fill="#FF6196"/>
<path d="M19.0573 13.536C19.0333 14.0977 18.8314 14.6384 18.4792 15.084C17.22 16.6655 15.774 18.0973 14.171 19.35C13.9125 19.5828 13.5848 19.73 13.235 19.7704C12.8852 19.8108 12.5312 19.7424 12.2239 19.575C11.9179 19.4478 11.66 19.2316 11.4855 18.956C11.3109 18.6805 11.2284 18.3591 11.2492 18.036C11.2862 17.6392 11.4555 17.2651 11.7313 16.9706C13.5239 15.3075 15.4661 13.8042 17.5345 12.4785C17.67 12.3751 17.8354 12.3158 18.0075 12.309C18.1795 12.3021 18.3493 12.348 18.4931 12.4402C18.682 12.5544 18.8347 12.7172 18.9343 12.9106C19.0339 13.104 19.0765 13.3205 19.0573 13.536Z" fill="#FF87AF"/>
<path d="M17.6721 20.3546C17.6453 20.1059 17.6781 19.8546 17.768 19.6204C17.8579 19.3861 18.0024 19.1753 18.1901 19.0046C19.9453 17.4295 21.8284 15.995 23.8211 14.715C23.8812 14.6779 23.9367 14.6407 24.0026 14.6025C24.1767 14.4802 24.3875 14.4178 24.6021 14.4249C24.8166 14.432 25.0227 14.5083 25.1878 14.6419C25.3475 14.7735 25.4605 14.9508 25.5107 15.1485C25.561 15.3463 25.5459 15.5544 25.4676 15.7432C25.2155 16.5602 24.7502 17.2997 24.1171 17.8897C22.8394 19.1272 21.5132 20.3242 20.1858 21.5122C19.9848 21.7134 19.7208 21.8437 19.4352 21.8828C19.1497 21.9219 18.859 21.8676 18.6087 21.7282C18.3457 21.5953 18.1218 21.3995 17.958 21.1592C17.7941 20.9189 17.6958 20.642 17.6721 20.3546Z" fill="#FF87AF"/>
<path d="M26.0156 21.0982C25.6919 21.4357 25.3589 21.7575 25.0478 22.1029C24.9543 22.2364 24.8767 22.3798 24.8166 22.5304C24.9877 22.5799 25.1877 22.7104 25.3265 22.6642C26.033 22.4336 26.7221 22.1569 27.4979 21.8655C27.3291 22.2435 27.2019 22.5922 27.0227 22.9117C26.2844 24.119 25.3598 25.2087 24.2812 26.1427C23.8712 26.5275 23.4453 26.8954 23.0036 27.2464C22.7697 27.4352 22.4884 27.5603 22.1886 27.6086C21.8887 27.657 21.581 27.6271 21.297 27.5218C21.0129 27.4165 20.7627 27.2397 20.572 27.0094C20.3812 26.7792 20.2567 26.5038 20.2112 26.2114C20.1927 26.0488 20.2075 25.8842 20.2547 25.7273C20.302 25.5703 20.3807 25.4239 20.4864 25.2967C22.0599 23.6343 23.8581 22.1874 25.8318 20.9959C25.8558 20.9868 25.8812 20.9819 25.9069 20.9812L26.0156 21.0982Z" fill="#FF87AF"/>
<path d="M28.6681 16.6174L30.6464 8.06738L32.0339 8.3835L31.3182 10.4996C30.6499 12.4684 29.9735 14.4371 29.3213 16.4081C29.1942 16.7726 29.0277 16.8401 28.6681 16.6174Z" fill="#FF6196"/>
<path d="M26.4342 21.6461C26.6435 20.8687 26.8516 20.1499 27.0273 19.4231C27.1986 18.7183 27.5244 18.0579 27.9824 17.487C28.2634 17.1281 28.579 17.271 28.9016 17.3486C29.1999 17.4195 29.2751 17.6321 29.2878 17.9111C29.3349 18.6827 29.0934 19.4447 28.6079 20.0565C28.03 20.7536 27.283 21.2998 26.4342 21.6461Z" fill="#FF6196"/>
<path d="M34.6794 3.25575C34.6967 3.0052 34.6901 2.75363 34.6598 2.50425C34.6359 2.4346 34.5887 2.37477 34.5256 2.33438C34.4743 2.29377 34.4142 2.26493 34.3499 2.25C34.3129 2.24325 34.2609 2.28038 34.2111 2.33325C34.163 2.38345 34.1221 2.43985 34.0897 2.50088C34.0605 2.60876 34.0542 2.7213 34.0712 2.83163V7.86263C32.5423 7.96822 31.0134 7.65653 29.6567 6.96263C29.2131 6.76756 28.8605 6.41826 28.6679 5.98326C28.4754 5.54826 28.4569 5.05897 28.616 4.61138C28.7883 3.978 28.9791 3.35025 29.1757 2.72363C29.2219 2.574 29.2485 2.41988 29.1757 2.33213C29.1351 2.28941 29.0792 2.26361 29.0196 2.26013C28.9432 2.26093 28.8692 2.28624 28.8091 2.33213C28.7227 2.38245 28.6538 2.45693 28.6114 2.54588C28.3802 3.22088 28.1767 3.90263 27.9998 4.59113C27.933 4.86244 27.915 5.14296 27.9466 5.42025C27.9913 5.92197 28.1831 6.40067 28.4991 6.79949C28.8152 7.19832 29.2422 7.50054 29.7295 7.67025C29.948 7.75913 30.0764 7.84688 30.0151 8.127C29.9307 8.4825 29.8486 8.838 29.7654 9.19463C29.1988 11.6111 28.6353 14.0288 28.0749 16.4475C28.0591 16.5553 28.0104 16.6561 27.935 16.7366C27.5656 17.0223 27.2553 17.3735 27.0204 17.7716C26.7211 18.297 26.514 18.8674 26.4076 19.4591C26.3872 19.6479 26.3171 19.8283 26.2041 19.983C26.091 20.1377 25.9389 20.2615 25.7624 20.3423C25.2803 20.5796 24.8374 20.8868 24.3021 21.2063C24.3378 20.5799 24.3308 19.9519 24.2813 19.3264C24.2405 19.134 24.2492 18.9347 24.3064 18.7464C24.3637 18.558 24.4679 18.3863 24.6096 18.2464C25.3148 17.5666 25.8175 16.7137 26.0642 15.7781C26.1379 15.5613 26.1581 15.3306 26.1232 15.1047C26.0883 14.8789 25.9992 14.6641 25.8633 14.478C25.7273 14.2918 25.5482 14.1393 25.3404 14.033C25.1327 13.9266 24.9022 13.8693 24.6674 13.8656C24.2874 13.8615 23.9143 13.9647 23.5933 14.1626C22.4868 14.8894 21.4103 15.6611 20.3419 16.4419C19.7094 16.9054 19.114 17.4184 18.5012 17.9044C18.4747 17.8768 18.4518 17.8462 18.4329 17.8133C18.4212 17.7304 18.3983 17.6495 18.3647 17.5725C17.8525 16.803 18.2075 16.2439 18.7636 15.669C19.343 15.0781 19.6632 14.2908 19.6563 13.4741C19.6742 13.058 19.5403 12.6491 19.2782 12.3199C19.1385 12.1527 18.9664 12.014 18.7717 11.9115C18.4951 11.7642 18.1789 11.7027 17.8654 11.7353C17.5519 11.7679 17.2561 11.893 17.0177 12.0938L16.6951 12.3188C15.9586 12.8318 15.2128 13.3313 14.504 13.8803C13.4692 14.6813 12.4586 15.516 11.4677 16.371C11.0052 16.7681 10.6676 17.3104 10.1877 17.6794C7.6856 19.602 5.15688 21.4898 2.63741 23.3899C2.55078 23.4402 2.47112 23.501 2.40038 23.571C2.3931 23.5812 2.3869 23.5922 2.38188 23.6036C2.32869 23.724 2.2836 23.9231 2.34604 23.9963C2.36134 24.0121 2.37984 24.0248 2.40038 24.0334C2.51052 24.0779 2.6331 24.0838 2.74726 24.0503C2.89851 23.9739 3.03723 23.8761 3.15888 23.76L10.212 18.441C10.338 18.3454 10.471 18.2588 10.6248 18.1508C10.6661 18.5991 10.837 19.0268 11.1175 19.3847C11.3981 19.7426 11.777 20.0159 12.2104 20.1732C12.6439 20.3305 13.1142 20.3653 13.5671 20.2736C14.02 20.1818 14.437 19.9674 14.7699 19.6549C15.5793 18.8966 16.4153 18.1609 17.2397 17.415L17.5403 17.1405C18.0444 18.1001 17.9936 18.3533 17.2189 18.9574C12.4582 22.6639 7.70102 26.3711 2.94729 30.0791C2.74494 30.2366 2.34488 30.3795 2.60735 30.7148C2.86982 31.05 3.11147 30.7046 3.31266 30.5483C7.7727 27.0825 12.2297 23.6123 16.6835 20.1375C16.7992 20.0475 16.9206 19.9676 17.0882 19.8484V20.2129C17.0656 20.634 17.1722 21.0522 17.3946 21.4143C17.617 21.7763 17.945 22.0657 18.337 22.2458C18.7212 22.4357 19.1574 22.5022 19.5829 22.4356C20.0084 22.3691 20.4012 22.1731 20.705 21.8756C21.6219 21.0881 22.5295 20.2849 23.4418 19.4906C23.4996 19.44 23.5667 19.4018 23.6731 19.323C23.8036 20.0963 23.7781 20.8869 23.5979 21.6506C23.5534 21.7522 23.4805 21.8395 23.3875 21.9026C22.6336 22.5364 21.877 23.1675 21.1178 23.796L9.98076 32.994C9.85036 33.0786 9.73514 33.1835 9.63966 33.3045C9.60919 33.3597 9.5921 33.4209 9.5897 33.4835C9.58729 33.5461 9.59964 33.6084 9.62579 33.6656C9.67803 33.7037 9.73842 33.7299 9.80248 33.7421C9.86653 33.7544 9.9326 33.7525 9.99579 33.7365C10.0456 33.7224 10.0915 33.6974 10.1299 33.6634C10.1877 33.6184 10.2455 33.561 10.2976 33.5149L18.3485 26.8774C18.7359 26.5579 19.1267 26.2429 19.5349 25.9099C19.5555 25.9634 19.5721 26.0183 19.5846 26.0741C19.6077 26.5084 19.7613 26.9264 20.0265 27.2764C20.2917 27.6264 20.6567 27.8929 21.0761 28.0429C21.4905 28.218 21.9498 28.2667 22.3932 28.1826C22.8366 28.0984 23.2434 27.8853 23.5598 27.5715C24.0963 27.0956 24.6258 26.6119 25.1577 26.1304C25.5046 25.821 25.8399 25.5105 26.2053 25.1764C26.2733 25.4073 26.3285 25.6416 26.3706 25.8784C26.4237 26.4294 26.3456 26.9849 26.1423 27.5017C25.9389 28.0186 25.6159 28.4829 25.1982 28.8585C23.8581 30.2625 22.4879 31.6361 21.1293 33.021C21.0403 33.111 20.9177 33.1853 20.8692 33.2921C20.8206 33.399 20.7894 33.6083 20.8472 33.6533L20.8634 33.6634C20.9846 33.7207 21.121 33.7408 21.2542 33.7208C21.2915 33.7133 21.3248 33.6929 21.3479 33.6634C21.3802 33.6308 21.4114 33.5903 21.4427 33.5599C22.5434 32.4529 23.6499 31.3515 24.7426 30.2366C25.1836 29.8019 25.5983 29.3424 25.9844 28.8608C26.4879 28.3184 26.8218 27.6475 26.9467 26.9268C27.0717 26.2062 26.9825 25.4658 26.6897 24.7928C26.6583 24.6427 26.689 24.4866 26.7753 24.3585C26.8504 24.2325 26.9337 24.1099 27.0193 23.9884C27.293 23.6425 27.5211 23.2646 27.698 22.8634C28.0399 21.8788 28.5646 20.9636 29.2462 20.1634C29.5595 19.7769 29.7751 19.3241 29.8755 18.8416C29.9759 18.3591 29.9584 17.8604 29.8243 17.3858C29.7769 17.2053 29.7769 17.0161 29.8243 16.8356C30.4094 15.0728 31.0118 13.3155 31.6084 11.5571C31.8759 10.7696 32.1418 9.98438 32.4062 9.20138L32.6525 8.4735C33.1774 8.4735 33.6723 8.46338 34.1649 8.4735C34.5742 8.48475 34.6991 8.298 34.6944 7.911C34.6702 6.3585 34.6794 4.80713 34.6794 3.25575ZM14.171 19.35C13.9125 19.5828 13.5848 19.73 13.235 19.7704C12.8852 19.8109 12.5312 19.7424 12.2239 19.575C11.9179 19.4478 11.66 19.2316 11.4855 18.956C11.3109 18.6805 11.2284 18.3591 11.2492 18.036C11.2862 17.6392 11.4555 17.2651 11.7313 16.9706C13.5239 15.3076 15.4661 13.8042 17.5345 12.4785C17.6474 12.4008 17.7759 12.3472 17.9115 12.321C18.0024 12.3047 18.0957 12.3047 18.1867 12.321C18.2956 12.3416 18.3996 12.3821 18.4931 12.4403C18.6821 12.5545 18.835 12.7174 18.9346 12.9111C19.0342 13.1047 19.0767 13.3214 19.0573 13.5371C19.0333 14.0988 18.8314 14.6395 18.4792 15.0851C17.22 16.6662 15.774 18.0977 14.171 19.35ZM20.1835 21.5201C19.9825 21.7212 19.7184 21.8516 19.4329 21.8907C19.1474 21.9298 18.8566 21.8754 18.6064 21.7361C18.3429 21.6029 18.1187 21.4065 17.9549 21.1656C17.791 20.9247 17.6929 20.6471 17.6698 20.3591C17.643 20.1105 17.6758 19.8591 17.7657 19.6249C17.8556 19.3906 18.0001 19.1798 18.1878 19.0091C19.943 17.434 21.8261 15.9995 23.8188 14.7195C23.8789 14.6824 23.9344 14.6453 24.0003 14.607C24.1743 14.4847 24.3852 14.4223 24.5998 14.4294C24.8143 14.4365 25.0204 14.5128 25.1854 14.6464C25.3452 14.778 25.4582 14.9553 25.5084 15.153C25.5587 15.3508 25.5436 15.5589 25.4653 15.7478C25.2132 16.5647 24.7479 17.3042 24.1148 17.8943C22.8394 19.134 21.5132 20.3276 20.1858 21.5156L20.1835 21.5201ZM27.0181 22.9163C26.2808 24.1216 25.3578 25.2098 24.2813 26.1428C23.8712 26.5275 23.4453 26.8954 23.0036 27.2464C22.7697 27.4352 22.4884 27.5603 22.1886 27.6086C21.8887 27.657 21.581 27.6271 21.297 27.5218C21.0129 27.4165 20.7627 27.2397 20.572 27.0094C20.3812 26.7792 20.2567 26.5038 20.2113 26.2114C20.1927 26.0488 20.2075 25.8842 20.2547 25.7273C20.302 25.5703 20.3807 25.4239 20.4864 25.2968C22.0599 23.6343 23.8581 22.1874 25.8318 20.9959C25.8558 20.9868 25.8812 20.9819 25.9069 20.9813L26.0226 21.0938C25.6988 21.4313 25.3658 21.753 25.0548 22.0984C24.9613 22.2319 24.8837 22.3753 24.8235 22.5259C24.9947 22.5754 25.1947 22.7059 25.3334 22.6598C25.8919 22.4775 26.4411 22.266 27.0297 22.041L27.5049 21.861C27.3268 22.2435 27.1996 22.5923 27.0204 22.9118L27.0181 22.9163ZM28.6056 20.0644C28.1743 20.5986 27.6338 21.0399 27.0181 21.3604C26.8277 21.4639 26.6323 21.5606 26.4319 21.6506C26.6377 20.8845 26.8435 20.1746 27.0181 19.4569L27.025 19.4276C27.1963 18.7228 27.5221 18.0624 27.9801 17.4915C28.2611 17.1326 28.5767 17.2755 28.8993 17.3531C29.1976 17.424 29.2728 17.6366 29.2855 17.9156C29.3329 18.6865 29.0923 19.4481 28.6079 20.0599L28.6056 20.0644ZM31.3113 10.5019C30.6429 12.4706 29.9665 14.4394 29.3144 16.4104C29.1919 16.7805 29.0254 16.848 28.6658 16.6253L30.3805 9.20813L30.6441 8.06963L32.0316 8.38575C31.9368 8.66363 31.8454 8.937 31.7529 9.20813L31.3113 10.5019Z" fill="black"/>
</svg>
