<svg width="36" height="36" viewBox="0 0 36 36" fill="none" xmlns="http://www.w3.org/2000/svg">
<path d="M18 7.203C13.8082 7.203 10.9897 9.03225 9.543 12.6915C9.393 13.0703 9.85575 13.3815 10.155 13.1048C11.6812 11.6933 13.3965 11.226 15.3 11.7015C16.6695 12.0435 17.6483 13.0373 18.732 14.1368C20.496 15.927 22.5382 18 27 18C31.1917 18 34.011 16.17 35.457 12.5108C35.607 12.132 35.1442 11.8208 34.845 12.0975C33.3187 13.509 31.6035 13.977 29.7 13.5015C28.3312 13.1595 27.3525 12.1658 26.2688 11.0663C24.504 9.27525 22.461 7.203 18 7.203ZM9 18C4.80825 18 1.989 19.83 0.543 23.4893C0.393 23.868 0.85575 24.1793 1.155 23.9025C2.68125 22.491 4.3965 22.023 6.3 22.4993C7.66875 22.842 8.6475 23.835 9.73125 24.9338C11.496 26.7248 13.539 28.7978 18 28.7978C22.1917 28.7978 25.011 26.9678 26.457 23.3085C26.607 22.9298 26.1442 22.6185 25.845 22.8953C24.3187 24.3068 22.6035 24.7748 20.7 24.2985C19.3305 23.9565 18.3517 22.9628 17.268 21.864C15.504 20.073 13.4618 18 9 18Z" fill="url(#paint0_linear_17_25)"/>
<defs>
<linearGradient id="paint0_linear_17_25" x1="16.3958" y1="6.17775" x2="19.2773" y2="27.414" gradientUnits="userSpaceOnUse">
<stop stop-color="#00C1E0"/>
<stop offset="1" stop-color="#009BB8"/>
</linearGradient>
</defs>
</svg>
