<svg width="36" height="36" viewBox="0 0 36 36" fill="none" xmlns="http://www.w3.org/2000/svg">
<path d="M0 18V36H36V0H0V18ZM29.0092 16.5645C29.9239 16.7929 30.6203 17.2035 31.2649 17.865C31.5934 18.216 32.085 18.8606 32.1266 19.0193C32.1379 19.0665 30.5741 20.115 29.6246 20.7011C29.5898 20.7247 29.4491 20.5785 29.2961 20.349C28.8337 19.6751 28.3466 19.3826 27.603 19.3298C26.5129 19.2589 25.8098 19.8281 25.8154 20.7833C25.8098 21.0173 25.8626 21.2524 25.9673 21.4571C26.208 21.9555 26.6591 22.2536 28.053 22.8577C30.6315 23.9648 31.7329 24.6971 32.418 25.7344C33.1852 26.8943 33.3551 28.746 32.8399 30.1286C32.2661 31.6226 30.8475 32.6419 28.8551 32.976C28.2397 33.0874 26.775 33.0694 26.1124 32.9468C24.6656 32.6891 23.2942 31.9736 22.4505 31.0365C22.1164 30.6731 21.4717 29.718 21.5134 29.6539C21.5314 29.6302 21.6776 29.5369 21.8419 29.4424C22.0061 29.3479 22.6091 28.9969 23.1784 28.6684L24.2156 28.0654L24.4328 28.3871C24.7376 28.8495 25.3991 29.4829 25.7985 29.6932C26.9471 30.303 28.5233 30.2153 29.3029 29.5178C29.619 29.2545 29.7956 28.8495 29.772 28.44C29.772 28.0238 29.7191 27.837 29.502 27.5254C29.2208 27.1271 28.6526 26.7874 27.0292 26.0843C25.1719 25.281 24.3686 24.7894 23.643 23.9985C23.1863 23.4765 22.8465 22.8622 22.653 22.1996C22.518 21.69 22.4831 20.412 22.5889 19.9024C22.9703 18.1035 24.3293 16.8559 26.28 16.4869C26.9134 16.3643 28.3894 16.4104 29.0104 16.5634L29.0092 16.5645ZM20.5605 18.0709L20.5717 19.5413H15.8839V32.8601H12.5674V19.5413H7.88625V18.1001C7.88625 17.2969 7.90425 16.6297 7.92675 16.6117C7.94475 16.5881 10.7921 16.5769 14.2493 16.5825L20.5425 16.6005L20.5605 18.0709Z" fill="url(#paint0_linear_14_14)" fill-opacity="0.61"/>
<defs>
<linearGradient id="paint0_linear_14_14" x1="18" y1="0" x2="18" y2="36" gradientUnits="userSpaceOnUse">
<stop stop-color="#1657FF"/>
<stop offset="1" stop-color="#3183FF"/>
</linearGradient>
</defs>
</svg>
